<svg version="1.1" id="Layer_1" xmlns="http://www.w3.org/2000/svg" xmlns:xlink="http://www.w3.org/1999/xlink" x="0px" y="0px"
	 width="100%" viewBox="0 0 512 512" enable-background="new 0 0 512 512" xml:space="preserve">
<path fill="#000000" opacity="1.000000" stroke="none" 
	d="
M1.000000,252.000000 
	C1.000000,245.312363 1.000000,238.624710 1.348820,231.383881 
	C7.325411,217.903198 18.871664,210.884171 29.465382,202.866821 
	C41.371479,193.856293 53.148857,184.675323 64.959938,175.539688 
	C77.669380,165.709152 90.323441,155.806824 103.056465,146.007019 
	C114.876389,136.909988 126.825523,127.980331 138.615326,118.844765 
	C155.561615,105.713608 172.356522,92.386803 189.325592,79.285393 
	C204.463303,67.597939 220.002441,56.416660 234.887344,44.420048 
	C245.986374,35.474693 264.982788,34.101994 276.086578,42.546398 
	C280.723267,46.072601 285.462921,49.464149 290.076935,53.019253 
	C301.134857,61.539429 312.127899,70.143753 323.184235,78.666039 
	C328.221771,82.548988 333.346985,86.318184 339.000000,90.565392 
	C339.000000,83.182785 338.741852,76.694542 339.063721,70.235207 
	C339.489960,61.681355 342.027893,53.902596 348.049652,47.373821 
	C355.628113,39.157310 365.003235,36.786762 375.818481,36.880962 
	C390.771912,37.011208 406.104614,52.797764 406.031128,67.273369 
	C405.914459,90.263023 406.270630,113.259354 405.791443,136.239609 
	C405.684448,141.370865 407.935913,144.075714 411.231140,146.622742 
	C425.212677,157.429703 439.287781,168.115768 453.340942,178.829941 
	C465.844238,188.362564 478.316711,197.936584 490.891327,207.374390 
	C500.397400,214.509155 509.511353,221.900116 513.000000,234.000000 
	C513.000000,239.022095 513.000000,244.044189 512.633301,249.646973 
	C508.207764,268.396362 487.981659,282.164734 463.000000,271.421082 
	C463.000000,272.630402 463.000000,273.788940 463.000000,274.947449 
	C463.000000,330.447357 463.016785,385.947266 462.957275,441.447083 
	C462.953796,444.683838 462.475311,447.942108 461.975037,451.152496 
	C459.717377,465.639648 444.607300,477.230682 429.980194,477.126495 
	C382.482697,476.788300 334.981293,477.000000 287.481384,477.000000 
	C285.718475,477.000000 283.955566,477.000000 281.801361,477.000000 
	C281.801361,424.670197 281.801361,372.930481 281.801361,321.304230 
	C264.992432,321.304230 248.586166,321.304230 231.783997,321.304230 
	C231.783997,373.347260 231.783997,425.086975 231.783997,477.000000 
	C229.566711,477.000000 227.749466,477.000000 225.932220,477.000000 
	C177.265640,477.000000 128.598389,476.855591 79.932907,477.085266 
	C64.715790,477.157043 49.010681,461.737518 49.005993,445.866089 
	C48.990227,392.532867 49.000000,339.199615 49.000000,285.866394 
	C49.000000,281.380737 49.000000,276.895081 49.000000,273.348755 
	C42.776093,273.905518 36.636738,275.076904 30.546698,274.860535 
	C20.207855,274.493164 12.145487,269.382965 6.376030,260.805420 
	C4.458544,257.954681 2.785038,254.939835 1.000000,252.000000 
M80.000000,404.500000 
	C80.000000,416.164856 79.993050,427.829712 80.002869,439.494568 
	C80.007957,445.534210 80.476097,445.996887 86.597504,445.997681 
	C122.929962,446.002441 159.262421,446.002716 195.594879,445.989990 
	C197.022751,445.989502 198.450577,445.842041 200.251282,445.742462 
	C200.251282,393.283569 200.251282,341.211334 200.251282,289.329010 
	C238.390335,289.329010 276.128906,289.329010 314.264343,289.329010 
	C314.264343,341.729584 314.264343,393.801819 314.264343,446.000000 
	C351.319946,446.000000 387.976440,445.904724 424.631165,446.112518 
	C429.581177,446.140594 431.130432,445.012390 431.118561,439.816223 
	C430.945679,364.318420 431.000000,288.820129 431.000000,213.321930 
	C431.000000,211.591995 431.000000,209.862061 431.000000,207.948776 
	C432.303802,208.059296 433.142944,207.871094 433.575836,208.206757 
	C438.584381,212.090286 443.482666,216.116470 448.505249,219.981308 
	C458.273682,227.498077 468.073395,234.975449 477.953491,242.343933 
	C478.908356,243.056091 480.517700,242.890732 481.823242,243.132706 
	C482.188141,242.452606 482.553070,241.772507 482.917999,241.092392 
	C481.543182,240.172913 480.113617,239.325089 478.801910,238.323044 
	C463.203979,226.407486 447.594116,214.507187 432.046448,202.526306 
	C414.300598,188.851578 396.736969,174.935150 378.782349,161.541779 
	C375.755981,159.284271 374.952393,157.272339 374.961090,153.959534 
	C375.030762,127.460365 375.035919,100.960777 374.933228,74.461807 
	C374.924835,72.293343 373.971497,70.128548 373.457214,67.962044 
	C372.798309,68.044373 372.139374,68.126709 371.480469,68.209038 
	C371.480469,96.973099 371.480469,125.737160 371.480469,155.983292 
	C332.513397,125.987778 294.775177,96.938202 257.008881,67.867004 
	C181.901062,125.694130 106.928978,183.416763 31.956886,241.139389 
	C32.055756,241.651093 32.154625,242.162796 32.253494,242.674500 
	C33.624199,242.523376 35.356346,242.857147 36.309864,242.146362 
	C46.190811,234.780731 55.942829,227.242249 65.738159,219.761612 
	C70.179214,216.369995 74.637001,213.000305 80.000000,208.927444 
	C80.000000,274.651276 80.000000,339.075653 80.000000,404.500000 
z"/>
<path fill="#FFFFFF" opacity="1.000000" stroke="none" 
	d="
M513.000000,233.531342 
	C509.511353,221.900116 500.397400,214.509155 490.891327,207.374390 
	C478.316711,197.936584 465.844238,188.362564 453.340942,178.829941 
	C439.287781,168.115768 425.212677,157.429703 411.231140,146.622742 
	C407.935913,144.075714 405.684448,141.370865 405.791443,136.239609 
	C406.270630,113.259354 405.914459,90.263023 406.031128,67.273369 
	C406.104614,52.797764 390.771912,37.011208 375.818481,36.880962 
	C365.003235,36.786762 355.628113,39.157310 348.049652,47.373821 
	C342.027893,53.902596 339.489960,61.681355 339.063721,70.235207 
	C338.741852,76.694542 339.000000,83.182785 339.000000,90.565392 
	C333.346985,86.318184 328.221771,82.548988 323.184235,78.666039 
	C312.127899,70.143753 301.134857,61.539429 290.076935,53.019253 
	C285.462921,49.464149 280.723267,46.072601 276.086578,42.546398 
	C264.982788,34.101994 245.986374,35.474693 234.887344,44.420048 
	C220.002441,56.416660 204.463303,67.597939 189.325592,79.285393 
	C172.356522,92.386803 155.561615,105.713608 138.615326,118.844765 
	C126.825523,127.980331 114.876389,136.909988 103.056465,146.007019 
	C90.323441,155.806824 77.669380,165.709152 64.959938,175.539688 
	C53.148857,184.675323 41.371479,193.856293 29.465382,202.866821 
	C18.871664,210.884171 7.325411,217.903198 1.348820,230.915344 
	C1.000000,154.367722 1.000000,77.735451 1.000000,1.051587 
	C171.555710,1.051587 342.111450,1.051587 513.000000,1.051587 
	C513.000000,78.353912 513.000000,155.708298 513.000000,233.531342 
z"/>
<path fill="#FFFFFF" opacity="1.000000" stroke="none" 
	d="
M1.000000,252.468658 
	C2.785038,254.939835 4.458544,257.954681 6.376030,260.805420 
	C12.145487,269.382965 20.207855,274.493164 30.546698,274.860535 
	C36.636738,275.076904 42.776093,273.905518 49.000000,273.348755 
	C49.000000,276.895081 49.000000,281.380737 49.000000,285.866394 
	C49.000000,339.199615 48.990227,392.532867 49.005993,445.866089 
	C49.010681,461.737518 64.715790,477.157043 79.932907,477.085266 
	C128.598389,476.855591 177.265640,477.000000 225.932220,477.000000 
	C227.749466,477.000000 229.566711,477.000000 231.783997,477.000000 
	C231.783997,425.086975 231.783997,373.347260 231.783997,321.304230 
	C248.586166,321.304230 264.992432,321.304230 281.801361,321.304230 
	C281.801361,372.930481 281.801361,424.670197 281.801361,477.000000 
	C283.955566,477.000000 285.718475,477.000000 287.481384,477.000000 
	C334.981293,477.000000 382.482697,476.788300 429.980194,477.126495 
	C444.607300,477.230682 459.717377,465.639648 461.975037,451.152496 
	C462.475311,447.942108 462.953796,444.683838 462.957275,441.447083 
	C463.016785,385.947266 463.000000,330.447357 463.000000,274.947449 
	C463.000000,273.788940 463.000000,272.630402 463.000000,271.421082 
	C487.981659,282.164734 508.207764,268.396362 512.633301,250.113831 
	C513.000000,337.629669 513.000000,425.259308 513.000000,512.944458 
	C342.442413,512.944458 171.884827,512.944458 1.000000,512.944458 
	C1.000000,426.312714 1.000000,339.625000 1.000000,252.468658 
z"/>
<path fill="#FFFFFF" opacity="1.000000" stroke="none" 
	d="
M80.000000,404.000000 
	C80.000000,339.075653 80.000000,274.651276 80.000000,208.927444 
	C74.637001,213.000305 70.179214,216.369995 65.738159,219.761612 
	C55.942829,227.242249 46.190811,234.780731 36.309864,242.146362 
	C35.356346,242.857147 33.624199,242.523376 32.253494,242.674500 
	C32.154625,242.162796 32.055756,241.651093 31.956886,241.139389 
	C106.928978,183.416763 181.901062,125.694130 257.008881,67.867004 
	C294.775177,96.938202 332.513397,125.987778 371.480469,155.983292 
	C371.480469,125.737160 371.480469,96.973099 371.480469,68.209038 
	C372.139374,68.126709 372.798309,68.044373 373.457214,67.962044 
	C373.971497,70.128548 374.924835,72.293343 374.933228,74.461807 
	C375.035919,100.960777 375.030762,127.460365 374.961090,153.959534 
	C374.952393,157.272339 375.755981,159.284271 378.782349,161.541779 
	C396.736969,174.935150 414.300598,188.851578 432.046448,202.526306 
	C447.594116,214.507187 463.203979,226.407486 478.801910,238.323044 
	C480.113617,239.325089 481.543182,240.172913 482.917999,241.092392 
	C482.553070,241.772507 482.188141,242.452606 481.823242,243.132706 
	C480.517700,242.890732 478.908356,243.056091 477.953491,242.343933 
	C468.073395,234.975449 458.273682,227.498077 448.505249,219.981308 
	C443.482666,216.116470 438.584381,212.090286 433.575836,208.206757 
	C433.142944,207.871094 432.303802,208.059296 431.000000,207.948776 
	C431.000000,209.862061 431.000000,211.591995 431.000000,213.321930 
	C431.000000,288.820129 430.945679,364.318420 431.118561,439.816223 
	C431.130432,445.012390 429.581177,446.140594 424.631165,446.112518 
	C387.976440,445.904724 351.319946,446.000000 314.264343,446.000000 
	C314.264343,393.801819 314.264343,341.729584 314.264343,289.329010 
	C276.128906,289.329010 238.390335,289.329010 200.251282,289.329010 
	C200.251282,341.211334 200.251282,393.283569 200.251282,445.742462 
	C198.450577,445.842041 197.022751,445.989502 195.594879,445.989990 
	C159.262421,446.002716 122.929962,446.002441 86.597504,445.997681 
	C80.476097,445.996887 80.007957,445.534210 80.002869,439.494568 
	C79.993050,427.829712 80.000000,416.164856 80.000000,404.000000 
z"/>
</svg>